<svg width="20" height="20" viewBox="0 0 20 20" fill="none" xmlns="http://www.w3.org/2000/svg">
<path d="M15.8334 4.16667V7.5H3.33335V4.16667H15.8334ZM15.8334 12.5V15.8333H3.33335V12.5H15.8334ZM16.6667 2.5H2.50002C2.04169 2.5 1.66669 2.875 1.66669 3.33333V8.33333C1.66669 8.79167 2.04169 9.16667 2.50002 9.16667H16.6667C17.125 9.16667 17.5 8.79167 17.5 8.33333V3.33333C17.5 2.875 17.125 2.5 16.6667 2.5ZM16.6667 10.8333H2.50002C2.04169 10.8333 1.66669 11.2083 1.66669 11.6667V16.6667C1.66669 17.125 2.04169 17.5 2.50002 17.5H16.6667C17.125 17.5 17.5 17.125 17.5 16.6667V11.6667C17.5 11.2083 17.125 10.8333 16.6667 10.8333Z" fill="black"/>
</svg>
