<svg width="20" height="20" viewBox="0 0 20 20" fill="none" xmlns="http://www.w3.org/2000/svg">
<path d="M17.8125 5C17.5581 5.00007 17.3075 5.06225 17.0826 5.18114C16.8577 5.30004 16.6653 5.47205 16.5219 5.68224C16.3786 5.89243 16.2888 6.13443 16.2603 6.38723C16.2317 6.64002 16.2653 6.89596 16.3582 7.13281L13.0703 10.4207C12.7038 10.2764 12.2962 10.2764 11.9297 10.4207L9.57928 8.07031C9.67235 7.83341 9.70614 7.57736 9.67771 7.32442C9.64927 7.07149 9.55948 6.82933 9.41613 6.61901C9.27279 6.40868 9.08023 6.23656 8.85521 6.11761C8.63019 5.99865 8.37951 5.93648 8.12499 5.93648C7.87046 5.93648 7.61978 5.99865 7.39476 6.11761C7.16974 6.23656 6.97718 6.40868 6.83384 6.61901C6.69049 6.82933 6.6007 7.07149 6.57227 7.32442C6.54383 7.57736 6.57762 7.83341 6.67069 8.07031L2.7578 11.9832C2.42363 11.8521 2.05451 11.8401 1.71252 11.9491C1.37052 12.0582 1.0765 12.2817 0.879895 12.582C0.68329 12.8823 0.596092 13.2412 0.632961 13.5983C0.66983 13.9553 0.828518 14.2888 1.08234 14.5426C1.33617 14.7965 1.66965 14.9552 2.02671 14.992C2.38378 15.0289 2.74265 14.9417 3.04298 14.7451C3.34332 14.5485 3.5668 14.2545 3.67585 13.9125C3.7849 13.5705 3.77287 13.2014 3.64178 12.8672L7.55467 8.9543C7.92119 9.09857 8.32878 9.09857 8.6953 8.9543L11.0457 11.3047C10.9526 11.5416 10.9188 11.7976 10.9473 12.0506C10.9757 12.3035 11.0655 12.5457 11.2088 12.756C11.3522 12.9663 11.5447 13.1384 11.7698 13.2574C11.9948 13.3763 12.2455 13.4385 12.5 13.4385C12.7545 13.4385 13.0052 13.3763 13.2302 13.2574C13.4552 13.1384 13.6478 12.9663 13.7911 12.756C13.9345 12.5457 14.0243 12.3035 14.0527 12.0506C14.0811 11.7976 14.0474 11.5416 13.9543 11.3047L17.2422 8.0168C17.4561 8.10085 17.686 8.13666 17.9154 8.12168C18.1448 8.10669 18.368 8.04128 18.5692 7.9301C18.7704 7.81893 18.9446 7.66473 19.0793 7.47851C19.2141 7.29228 19.3061 7.07861 19.3488 6.85274C19.3915 6.62687 19.3839 6.39436 19.3264 6.1718C19.2689 5.94923 19.163 5.74208 19.0163 5.56513C18.8696 5.38819 18.6856 5.24579 18.4775 5.14811C18.2694 5.05042 18.0424 4.99985 17.8125 5Z" fill="#000"/>
</svg>
