<svg width="20" height="20" viewBox="0 0 20 20" fill="none" xmlns="http://www.w3.org/2000/svg">
<path d="M20 17.5C20 18.163 19.7366 18.7989 19.2678 19.2678C18.7989 19.7366 18.163 20 17.5 20H2.5C1.83696 20 1.20107 19.7366 0.732233 19.2678C0.263392 18.7989 0 18.163 0 17.5V2.5C0 1.83696 0.263392 1.20107 0.732233 0.732233C1.20107 0.263392 1.83696 0 2.5 0L17.5 0C18.163 0 18.7989 0.263392 19.2678 0.732233C19.7366 1.20107 20 1.83696 20 2.5V17.5ZM14.375 9.375H7.13375L9.8175 6.6925C9.93486 6.57514 10.0008 6.41597 10.0008 6.25C10.0008 6.08403 9.93486 5.92486 9.8175 5.8075C9.70014 5.69014 9.54097 5.62421 9.375 5.62421C9.20903 5.62421 9.04986 5.69014 8.9325 5.8075L5.1825 9.5575C5.1243 9.61556 5.07812 9.68453 5.04661 9.76046C5.0151 9.83639 4.99888 9.91779 4.99888 10C4.99888 10.0822 5.0151 10.1636 5.04661 10.2395C5.07812 10.3155 5.1243 10.3844 5.1825 10.4425L8.9325 14.1925C9.04986 14.3099 9.20903 14.3758 9.375 14.3758C9.54097 14.3758 9.70014 14.3099 9.8175 14.1925C9.93486 14.0751 10.0008 13.916 10.0008 13.75C10.0008 13.584 9.93486 13.4249 9.8175 13.3075L7.13375 10.625H14.375C14.5408 10.625 14.6997 10.5592 14.8169 10.4419C14.9342 10.3247 15 10.1658 15 10C15 9.83424 14.9342 9.67527 14.8169 9.55806C14.6997 9.44085 14.5408 9.375 14.375 9.375Z" fill="#AFAFAF"/>
</svg>
